<?xml version="1.0" encoding="utf-8"?>
<!-- Generator: Adobe Illustrator 16.0.0, SVG Export Plug-In . SVG Version: 6.00 Build 0)  -->
<!DOCTYPE svg PUBLIC "-//W3C//DTD SVG 1.1//EN" "http://www.w3.org/Graphics/SVG/1.1/DTD/svg11.dtd">
<svg version="1.1" id="Layer_1" xmlns="http://www.w3.org/2000/svg" xmlns:xlink="http://www.w3.org/1999/xlink" x="0px" y="0px"
	 width="512px" height="512px" viewBox="0 0 512 512" enable-background="new 0 0 512 512" xml:space="preserve">
<g>
	<path fill="#4D4D4D" d="M1475.403,90.588c27.96,0,50.708-22.747,50.708-50.706c0-27.959-22.748-50.706-50.708-50.706
		c-27.958,0-50.705,22.747-50.705,50.706C1424.698,67.841,1447.445,90.588,1475.403,90.588z M1475.403,10.113
		c16.416,0,29.771,13.354,29.771,29.769c0,16.415-13.354,29.769-29.771,29.769c-16.415,0-29.77-13.354-29.77-29.769
		C1445.633,23.468,1458.988,10.113,1475.403,10.113z"/>
	<path fill="#4D4D4D" d="M1600.699,232.547c-3.117-3.599-8.562-3.987-12.161-0.869l-16.096,13.95
		c-3.598,3.118-3.985,8.563-0.868,12.162c1.707,1.967,4.104,2.975,6.519,2.975c2.002,0,4.012-0.694,5.643-2.107l16.096-13.949
		C1603.429,241.59,1603.818,236.146,1600.699,232.547z"/>
	<path fill="#4D4D4D" d="M1549.382,209.938l-7.298,20.172c-1.619,4.477,0.697,9.42,5.175,11.04c0.97,0.351,1.958,0.517,2.932,0.517
		c3.528,0,6.84-2.183,8.107-5.691l7.297-20.172c1.619-4.479-0.698-9.42-5.176-11.04
		C1555.944,203.144,1551.001,205.461,1549.382,209.938z"/>
	<path fill="#4D4D4D" d="M1612.319,269.684l-20.817,4.507c-4.653,1.007-7.608,5.597-6.6,10.249c0.873,4.039,4.445,6.799,8.415,6.799
		c0.606,0,1.22-0.063,1.834-0.197l20.816-4.506c4.654-1.008,7.609-5.596,6.601-10.25
		C1621.561,271.632,1616.971,268.676,1612.319,269.684z"/>
	<path fill="#4D4D4D" d="M1634.03,152.097c-0.012-0.006-0.023-0.011-0.035-0.018c-0.143-0.069-0.281-0.143-0.425-0.209
		c-0.087-0.041-0.179-0.069-0.266-0.106c-0.087-0.039-0.168-0.083-0.258-0.119l-108.589-43.35l0,0
		c-0.002-0.001-0.002-0.001-0.002-0.001c-10.021-3.998-20.924-6.109-31.535-6.109c-0.008,0-0.018,0-0.027,0h-0.002h-47.854h-0.002
		c-11.42,0.004-22.635,3.901-31.575,10.97c-8.977,7.099-15.333,17.137-17.896,28.265c0,0.002,0,0.004,0,0.005l-22.745,98.923
		c-0.002,0.002-0.002,0.002-0.002,0.004c-2.06,8.947-2.217,18.049-0.59,26.818l-11.542,92.534h-61.36h-0.001
		c-0.015,0-0.028,0-0.042,0c-19.714,0.082-35.75,16.282-35.75,36.114c0,19.949,16.036,36.246,35.75,36.326c0.014,0,0.027,0,0.042,0
		h0.001h86.483c22.159,0,40.927-16.585,43.652-38.58c0-0.001,0-0.003,0-0.005c0,0,0,0,0-0.001l8.875-71.933h59.971v75.373
		c0,19.262,16.2,34.932,36.112,34.932c9.368,0,18.297-3.546,25.142-9.983c7.075-6.656,10.972-15.517,10.972-24.948V296.994l0,0l0,0
		c-0.002-20.504-13.905-38.105-33.813-42.807c-0.003-0.001-0.006-0.001-0.007-0.001c-0.003,0-0.005-0.002-0.008-0.002
		l-60.836-14.278l16.928-73.83c0.119-0.516,0.553-1.061,1.055-1.323c0.494-0.259,1.107-0.299,1.602-0.1h0.002
		c0,0,0.002,0.001,0.004,0.001l114.168,45.495c0.093,0.039,0.19,0.064,0.285,0.098c0.083,0.031,0.161,0.069,0.246,0.097
		c0.139,0.047,0.275,0.086,0.416,0.131c0.004,0.002,0.01,0.004,0.016,0.006c3.232,1.039,6.515,1.54,9.752,1.54
		c12.663,0,24.563-7.602,29.49-19.949C1655.933,176.774,1648.992,159.325,1634.03,152.097z M1385.808,411.209h-86.441
		c-8.213-0.035-14.897-6.938-14.897-15.391c0-8.477,6.544-15.143,14.897-15.177h70.536c0.012,0,0.025,0,0.037,0
		c0.35,0,0.691-0.019,1.033-0.053c0.064-0.007,0.131-0.02,0.196-0.027c0.266-0.031,0.53-0.07,0.793-0.122
		c0.116-0.023,0.229-0.054,0.347-0.08c0.202-0.049,0.406-0.097,0.606-0.157c0.137-0.04,0.271-0.089,0.406-0.135
		c0.171-0.059,0.341-0.119,0.51-0.187c0.144-0.057,0.285-0.12,0.426-0.186c0.152-0.069,0.305-0.141,0.455-0.219
		c0.142-0.073,0.277-0.148,0.417-0.228c0.143-0.082,0.285-0.169,0.426-0.26c0.131-0.083,0.26-0.168,0.387-0.258
		c0.144-0.099,0.279-0.204,0.416-0.31c0.117-0.09,0.232-0.181,0.344-0.275c0.143-0.121,0.278-0.248,0.413-0.377
		c0.097-0.092,0.196-0.182,0.289-0.276c0.144-0.146,0.28-0.302,0.417-0.457c0.075-0.087,0.155-0.171,0.227-0.261
		c0.148-0.183,0.287-0.373,0.424-0.565c0.052-0.072,0.106-0.141,0.154-0.214c0.163-0.241,0.313-0.49,0.454-0.744
		c0.019-0.033,0.037-0.063,0.058-0.095c0.154-0.29,0.299-0.587,0.428-0.892c0.043-0.104,0.078-0.214,0.119-0.319
		c0.075-0.199,0.154-0.396,0.22-0.602c0.05-0.159,0.089-0.324,0.134-0.486c0.041-0.159,0.087-0.316,0.12-0.479
		c0.037-0.169,0.062-0.343,0.089-0.513c0.022-0.134,0.052-0.264,0.07-0.398l8.842-70.88c7.875,8.451,17.667,14.596,28.455,17.99
		l-8.931,72.408c0,0.001,0,0.001,0,0.001C1407.254,402.516,1397.421,411.209,1385.808,411.209z M1630.385,184.313
		c-2.069,5.182-8.056,7.948-13.398,6.232l-113.78-45.341c-0.004-0.001-0.007-0.002-0.009-0.003
		c-6.192-2.465-13.136-2.099-19.062,1.005c-5.875,3.076-10.267,8.749-11.745,15.172c0,0.001,0,0.002,0,0.003
		c0,0.002,0,0.005-0.003,0.007l-17.808,77.673l0,0c0,0.001,0,0.002-0.002,0.004v0.008c-0.002,0.003-0.002,0.006-0.004,0.01
		c-1.168,5.104,0.021,10.372,3.27,14.451c2.606,3.275,6.315,5.359,11.011,6.231l63.05,14.798h0.002
		c10.413,2.459,17.688,11.684,17.689,22.433v100.003c0,7.586-6.951,13.995-15.178,13.995c-8.369,0-15.177-6.278-15.177-13.995
		v-85.842c0-5.78-4.687-10.467-10.467-10.467h-71.248c-13.854,0-26.773-6.249-35.442-17.143c-8.74-10.98-11.972-25.013-8.865-38.499
		c0,0,0-0.001,0-0.003l0,0l22.748-98.922c0,0,0-0.003,0-0.005c3.117-13.535,15.072-22.992,29.075-22.997h47.851
		c0.01,0,0.02,0,0.027,0c7.979,0,16.198,1.597,23.776,4.618l0,0l108.2,43.195C1630,173.386,1632.412,179.229,1630.385,184.313z"/>
</g>
<g>
	<path fill="#4D4D4D" d="M1943.379,154.107c41.925,0,76.033-34.107,76.033-76.033c0-41.924-34.108-76.033-76.033-76.033
		c-41.926,0-76.033,34.108-76.033,76.033C1867.346,120,1901.453,154.107,1943.379,154.107z M1943.379,22.978
		c30.381,0,55.097,24.716,55.097,55.096c0,30.38-24.716,55.096-55.097,55.096s-55.096-24.716-55.096-55.096
		C1888.283,47.694,1912.998,22.978,1943.379,22.978z"/>
	<path fill="#4D4D4D" d="M2129.211,288.076C2129.211,288.076,2129.211,288.076,2129.211,288.076l-43.099-72.748l-0.001-0.001
		c-13.602-22.962-38.721-37.225-65.553-37.225H1850c-35.063,0-65.387,23.891-73.746,58.101c0,0.001,0,0.004,0,0.005l-14.978,61.133
		c-0.001,0.002-0.001,0.002-0.002,0.004c0,0.002,0,0.002,0,0.004c-6.054,24.786,3.237,51.033,23.666,66.87
		c11.622,9.008,25.681,13.613,39.809,13.611c5.159,0,10.329-0.616,15.393-1.855v57.433c0,5.781,4.687,10.467,10.468,10.467
		c5.782,0,10.469-4.686,10.469-10.467v-66.333l130.184-69.626c0.041-0.023,0.078-0.05,0.119-0.072
		c0.091-0.051,0.183-0.096,0.274-0.149c20.063-11.87,27.184-37.228,16.21-57.732c-10.957-20.465-35.974-28.583-56.955-18.48
		c-0.064,0.032-0.125,0.071-0.188,0.104c-0.065,0.033-0.131,0.058-0.197,0.091l-114.623,61.132
		c-5.101,2.722-7.031,9.063-4.31,14.164c1.884,3.533,5.503,5.545,9.245,5.545c1.662,0,3.35-0.396,4.918-1.234l114.363-60.993
		c10.821-5.132,23.661-0.954,29.286,9.554c5.644,10.543,2,23.58-8.287,29.754l-135.462,72.448c-0.021,0.01-0.041,0.021-0.063,0.032
		l-0.227,0.122c0,0.001-0.002,0.001-0.003,0.002l0,0c-15.22,8.147-33.901,6.551-47.597-4.063
		c-13.906-10.781-20.248-28.581-16.155-45.352l14.978-61.129c0-0.002,0-0.003,0-0.006c0,0,0-0.001,0-0.002
		c6.059-24.813,28.021-42.144,53.41-42.144h170.559c19.473,0,37.69,10.33,47.541,26.96c0,0,0,0.002,0.001,0.002l43.097,72.745l0,0
		c18.18,30.7,12.977,69.537-12.654,94.446c-0.008,0.006-0.013,0.014-0.018,0.019c-0.008,0.008-0.014,0.013-0.02,0.019
		l-33.318,32.706c-4.125,4.05-4.187,10.678-0.136,14.804c2.05,2.088,4.758,3.135,7.471,3.135c2.646,0,5.295-0.998,7.333-2.997
		l33.316-32.705c0.002-0.004,0.004-0.007,0.007-0.009c32.557-31.679,39.149-81.05,16.034-120.084
		C2129.213,288.076,2129.211,288.076,2129.211,288.076z"/>
	<path fill="#4D4D4D" d="M2072.469,356.562c0.003-0.002,0.004-0.004,0.005-0.005c0.003-0.003,0.006-0.004,0.007-0.008
		c7.742-7.522,9.362-19.735,3.853-29.041c0,0-0.002-0.001-0.002-0.002c0,0,0,0,0-0.001l-35.151-59.299
		c-2.948-4.975-9.37-6.615-14.344-3.668c-4.974,2.948-6.615,9.371-3.667,14.344l35.148,59.293c0,0.002,0,0.002,0,0.002
		c0.601,1.011,0.403,2.549-0.428,3.358c-0.001,0.001-0.002,0.001-0.002,0.001l-29.329,28.414c-0.021,0.019-0.036,0.04-0.056,0.059
		c-0.147,0.146-0.284,0.301-0.423,0.455c-0.096,0.104-0.197,0.205-0.288,0.313c-0.114,0.138-0.219,0.286-0.325,0.43
		c-0.1,0.134-0.204,0.261-0.296,0.396c-0.077,0.114-0.145,0.237-0.218,0.353c-0.105,0.174-0.217,0.342-0.314,0.519
		c-0.059,0.11-0.108,0.229-0.165,0.341c-0.093,0.19-0.19,0.378-0.272,0.57c-0.089,0.207-0.161,0.423-0.234,0.637
		c-0.037,0.105-0.082,0.207-0.115,0.312c-0.062,0.195-0.105,0.397-0.155,0.599c-0.033,0.13-0.074,0.259-0.102,0.389
		c-0.033,0.162-0.053,0.328-0.077,0.492c-0.029,0.177-0.063,0.353-0.082,0.529c-0.016,0.141-0.018,0.286-0.027,0.429
		c-0.013,0.205-0.03,0.411-0.031,0.616c0,0.028-0.003,0.055-0.003,0.081v55.938c0,5.781,4.687,10.467,10.468,10.467
		s10.468-4.686,10.468-10.467v-51.503L2072.469,356.562z"/>
	<path fill="#4D4D4D" d="M2028.277,159.591c0.079,0.001,0.156,0.003,0.234,0.003c4.653,0,8.488-3.71,8.613-8.392l0.555-20.766
		l3.372,0.992c0.1,0.029,0.201,0.051,0.302,0.076c1.254,0.35,2.553,0.532,3.866,0.532c3.283,0,6.641-1.071,9.521-3.114
		c3.83-2.716,6.032-6.898,6.217-11.785c0.001-0.019,0.004-0.036,0.005-0.054l0.917-22.926c0.19-4.757-3.513-8.769-8.271-8.958
		c-4.755-0.196-8.768,3.512-8.959,8.269l-0.831,20.8l-3.099-0.911c-0.02-0.006-0.039-0.008-0.058-0.013
		c-4.805-1.458-9.528-0.786-13.327,1.908c-4.011,2.845-6.695,7.767-6.835,12.542c0,0.004,0,0.008,0,0.013
		c0,0.003-0.001,0.007-0.001,0.011l-0.61,22.925C2019.761,155.502,2023.517,159.465,2028.277,159.591z"/>
	<path fill="#4D4D4D" d="M2069.4,172.65c1.288,0.683,2.67,1.006,4.031,1.006c3.089,0,6.076-1.665,7.624-4.584l9.726-18.338
		l2.486,2.295c0.018,0.017,0.036,0.029,0.054,0.045c2.813,2.61,6.753,4.08,10.749,4.08c0.844,0,1.69-0.065,2.528-0.199
		c4.761-0.759,8.819-3.694,11.135-8.052c0-0.001,0-0.003,0-0.004c0.002,0,0.002,0,0.002,0l10.697-20.173
		c2.232-4.206,0.631-9.425-3.577-11.656c-4.206-2.231-9.424-0.629-11.654,3.578l-9.726,18.339l-2.486-2.295
		c-0.021-0.019-0.044-0.034-0.063-0.052c-3.466-3.224-8.171-4.638-12.964-3.875c-4.9,0.782-9.177,3.792-11.438,8.052
		c-0.002,0.001-0.003,0.002-0.004,0.004l-10.697,20.174C2063.591,165.201,2065.193,170.42,2069.4,172.65z"/>
	<path fill="#4D4D4D" d="M2174.934,178.1c-2.742-3.89-8.121-4.822-12.013-2.079l-16.883,11.902l-0.793-2.537
		c-0.019-0.056-0.042-0.107-0.06-0.161c-0.02-0.056-0.029-0.111-0.049-0.164c-0.063-0.169-0.129-0.333-0.197-0.499
		c0-0.001,0-0.003,0-0.005c-1.714-4.306-5.361-7.687-9.862-9.097c-4.667-1.462-9.767-0.691-13.673,2.056
		c-0.019,0.011-0.036,0.021-0.054,0.033l-18.646,13.144c-3.891,2.743-4.822,8.122-2.079,12.014c1.68,2.381,4.346,3.654,7.055,3.654
		c1.716,0,3.448-0.511,4.96-1.575l16.883-11.902l0.793,2.538c0.02,0.064,0.046,0.125,0.067,0.191
		c0.016,0.045,0.026,0.09,0.042,0.134c0.025,0.071,0.055,0.141,0.083,0.212c0.028,0.074,0.056,0.149,0.088,0.223
		c1.637,4.118,5.321,7.333,10.193,8.859c1.74,0.546,3.468,0.816,5.141,0.816c2.899,0,5.633-0.821,7.999-2.418
		c0.094-0.061,0.189-0.116,0.279-0.181l18.646-13.144C2176.747,187.371,2177.676,181.993,2174.934,178.1z"/>
</g>
<g>
	<path fill="#4D4D4D" d="M1524.396-532.053v-0.002c-0.002-0.002-0.002-0.002-0.002-0.004l-34.612-147.949
		c-0.002-0.005-0.004-0.01-0.004-0.015c-3.543-16.378-15.498-29.576-31.254-34.475c-1.271-0.394-2.549-0.725-3.834-1.007
		c-27.411-23.125-67.237-24.075-95.778-1.927c-29.29,22.731-37.968,63.017-20.636,95.791c13.521,25.56,39.663,40.633,67.195,40.63
		c4.103,0,8.238-0.345,12.368-1.031l8.498,36.387h-112.16c-0.004,0-0.008,0-0.012,0c-17.649-0.172-34.144,6.425-46.457,18.592
		c-12.355,12.211-19.442,29.236-19.442,46.707v95.57c0,5.781,4.687,10.467,10.469,10.467c5.781,0,10.469-4.686,10.469-10.467v-95.57
		c0-11.914,4.82-23.51,13.225-31.816c8.329-8.232,19.563-12.704,31.627-12.547c0.041,0.001,0.081,0.001,0.122,0.001l0,0h115.787
		c5.625,0,11.036-2.585,14.473-6.918c3.322-4.187,4.416-9.66,3.076-15.411c-0.002-0.006-0.002-0.011-0.004-0.017l-27.261-116.707
		c-0.01-0.039-0.023-0.075-0.031-0.114c-0.01-0.035-0.015-0.07-0.021-0.105c-2.232-8.702,0.614-18.402,7.249-24.711
		c6.616-6.292,16.144-8.517,24.863-5.805c8.597,2.672,15.124,9.97,17.037,19.042c0.009,0.038,0.021,0.073,0.03,0.111
		c0.007,0.038,0.012,0.075,0.019,0.114l34.613,147.945c0,0,0,0,0,0.001c3.025,12.959,0.065,26.311-8.121,36.627
		c-8.138,10.258-20.875,16.383-34.065,16.383h-93.732c-5.781,0-10.467,4.688-10.467,10.469s4.686,10.469,10.467,10.469h21.388
		v68.561c0,5.781,4.688,10.467,10.469,10.467c5.782,0,10.469-4.686,10.469-10.467v-68.561h51.407
		c19.525,0,38.391-9.086,50.467-24.307C1524.469-493.006,1528.883-512.834,1524.396-532.053z M1413.018-703.873
		c-12.167,11.568-17.197,28.725-13.164,44.831c0.002,0.012,0.004,0.022,0.006,0.034l13.202,56.521
		c-22.597,3.162-45.235-8.067-56.277-28.943c-12.57-23.766-6.276-52.979,14.964-69.462c14.509-11.26,33.039-14.281,49.672-9.309
		C1418.421-708.438,1415.599-706.326,1413.018-703.873z"/>
	<path fill="#4D4D4D" d="M1272.783-741.32l16.423,11.498l-2.034,1.563c-0.023,0.018-0.043,0.04-0.067,0.058
		c-0.023,0.018-0.047,0.032-0.071,0.051c-3.752,3.01-5.819,7.584-5.668,12.55c0.147,4.988,2.462,9.432,6.344,12.203
		c0.01,0.006,0.017,0.015,0.025,0.021l18.074,12.866c1.517,1.079,3.263,1.599,4.993,1.599c2.693,0,5.348-1.261,7.03-3.622
		c2.761-3.879,1.855-9.262-2.024-12.023l-16.188-11.524l2.047-1.576c0.022-0.016,0.042-0.035,0.063-0.052
		c0.024-0.02,0.053-0.036,0.079-0.057c3.829-3.074,6.12-8,5.974-12.856c-0.141-4.736-2.52-8.973-6.693-11.93
		c-0.006-0.003-0.014-0.007-0.02-0.012c-0.006-0.005-0.012-0.011-0.021-0.016l-18.379-12.864c-3.901-2.73-9.275-1.782-12.005,2.118
		C1267.933-749.426,1268.882-744.05,1272.783-741.32z"/>
	<path fill="#4D4D4D" d="M1360.132-766.452c0.002,0.009,0.002,0.016,0.006,0.024l6.432,21.441c1.122,3.735,4.547,6.146,8.255,6.146
		c0.821,0,1.655-0.118,2.479-0.366c4.561-1.369,7.149-6.175,5.782-10.735l-5.719-19.054l3.173-0.187
		c0.009-0.001,0.017-0.003,0.022-0.003c4.794-0.174,9.284-2.482,12.076-6.244c2.926-3.937,3.782-8.684,2.406-13.366
		c-0.002-0.008-0.006-0.016-0.008-0.023c-0.002-0.009-0.004-0.017-0.006-0.026l-6.434-21.441c-1.367-4.561-6.174-7.148-10.734-5.78
		c-4.561,1.368-7.147,6.175-5.779,10.734l5.71,19.038l-3.473,0.205c-0.016,0.001-0.032,0.004-0.05,0.006
		c-4.84,0.243-8.688,2.236-11.438,5.935c-3.018,4.062-4.032,9.172-2.71,13.67C1360.126-766.468,1360.131-766.46,1360.132-766.452z"
		/>
	<path fill="#4D4D4D" d="M1454.208-738.59c1.086,0.454,2.212,0.669,3.322,0.669c3.371,0,6.576-1.993,7.958-5.299l7.648-18.303
		l2.35,1.847c0.096,0.074,0.195,0.141,0.294,0.211c2.729,2.06,6.066,3.165,9.455,3.165c1.283,0,2.571-0.159,3.836-0.48
		c4.535-1.151,8.124-4.38,10.104-9.092c0.003-0.003,0.003-0.007,0.004-0.011c0-0.001,0-0.003,0.002-0.003l8.576-20.524
		c1.836-4.393-0.237-9.442-4.63-11.278c-4.392-1.836-9.442,0.237-11.277,4.63l-7.648,18.303l-2.351-1.847
		c-0.021-0.016-0.042-0.027-0.062-0.043c-4.858-3.826-9.698-3.67-12.915-2.854c-4.761,1.21-8.867,4.695-10.715,9.095
		c0,0.002-0.002,0.006-0.002,0.009c-0.002,0.001-0.002,0.003-0.004,0.005l-8.576,20.522
		C1447.742-745.476,1449.816-740.427,1454.208-738.59z"/>
</g>
<g>
	<path d="M447.261,293.34c0,0,0-0.001,0-0.002s-0.002-0.001-0.002-0.001l-71.24-131.263c-0.01-0.016-0.019-0.029-0.027-0.045
		c-0.008-0.015-0.015-0.029-0.022-0.043c-5.333-9.595-14.027-16.575-24.478-19.655c-10.485-3.091-21.58-1.91-31.236,3.327
		c-5.528,2.998-10.111,7.083-13.634,11.841c-13.212-13.259-31.404-21.059-50.485-21.059c-19.079,0.001-37.27,7.803-50.48,21.062
		c-3.565-4.849-8.188-8.893-13.632-11.845c-19.995-10.844-45.241-3.52-56.275,16.33c-0.009,0.017-0.015,0.033-0.024,0.05
		c-0.01,0.018-0.021,0.034-0.031,0.052L64.734,293.351c-0.002,0.003-0.002,0.005-0.004,0.007
		c-11.524,21.268-10.994,46.413,1.423,67.271c12.361,20.766,34.811,33.665,58.587,33.665h40.867c0.012,0.01,0.023,0.021,0.032,0.031
		v60.223c0,5.447,4.417,9.864,9.866,9.864c5.447,0,9.865-4.417,9.865-9.864v-60.303l0,0v-0.001
		c-0.002-10.852-8.831-19.681-19.683-19.681H124.74c-16.857,0-32.811-9.208-41.633-24.027c-8.827-14.829-9.209-32.694-1.021-47.79
		c0-0.002,0-0.003,0.001-0.004c0.002-0.003,0.003-0.006,0.005-0.008l70.916-131.183c5.811-10.422,19.086-14.257,29.61-8.55
		c10.398,5.639,14.368,18.718,8.854,29.162l-68.163,125.548c-0.165,0.301-0.313,0.611-0.447,0.931
		c-0.017,0.036-0.026,0.075-0.042,0.111c-0.104,0.262-0.203,0.525-0.287,0.798c-0.049,0.162-0.084,0.324-0.125,0.489
		c-0.037,0.147-0.08,0.292-0.111,0.441c-0.061,0.298-0.104,0.597-0.137,0.897c-0.002,0.019-0.006,0.039-0.009,0.059
		c-0.067,0.665-0.067,1.329-0.001,1.986c0.014,0.144,0.042,0.283,0.063,0.426c0.024,0.171,0.044,0.342,0.078,0.512
		c0.04,0.206,0.095,0.405,0.148,0.606c0.027,0.104,0.049,0.21,0.08,0.313c0.063,0.206,0.137,0.405,0.212,0.606
		c0.036,0.099,0.069,0.198,0.108,0.297c0.074,0.181,0.16,0.356,0.244,0.531c0.056,0.115,0.106,0.231,0.167,0.345
		c0.077,0.146,0.163,0.285,0.247,0.426c0.082,0.137,0.161,0.277,0.25,0.41c0.072,0.109,0.153,0.214,0.23,0.319
		c0.111,0.155,0.223,0.313,0.344,0.461c0.068,0.085,0.145,0.164,0.215,0.244c0.14,0.158,0.277,0.318,0.426,0.469
		c0.078,0.078,0.164,0.151,0.246,0.228c0.147,0.14,0.295,0.281,0.454,0.413c0.136,0.113,0.28,0.214,0.421,0.319
		c0.113,0.084,0.221,0.173,0.337,0.252c0.306,0.208,0.627,0.397,0.956,0.571c0.204,0.106,0.41,0.205,0.617,0.298
		c0.085,0.036,0.169,0.072,0.255,0.107c0.249,0.102,0.501,0.197,0.755,0.276c0.037,0.012,0.075,0.021,0.113,0.032
		c0.256,0.078,0.514,0.143,0.773,0.198c0.047,0.011,0.093,0.022,0.141,0.031c0.295,0.059,0.593,0.104,0.891,0.136
		c0.029,0.003,0.059,0.005,0.088,0.009c0.316,0.031,0.633,0.049,0.948,0.049c0.019,0,0.04-0.002,0.06-0.002h247.902
		c0.018,0,0.04,0.002,0.058,0.002c0.316,0,0.634-0.018,0.949-0.049c0.027-0.004,0.059-0.006,0.086-0.009
		c0.3-0.031,0.597-0.077,0.893-0.136c0.048-0.009,0.093-0.02,0.141-0.031c0.261-0.056,0.52-0.121,0.777-0.198
		c0.034-0.012,0.071-0.021,0.105-0.031c0.256-0.08,0.508-0.176,0.76-0.277c0.084-0.035,0.168-0.07,0.25-0.106
		c0.212-0.095,0.423-0.194,0.631-0.305c0.325-0.171,0.641-0.357,0.942-0.563c0.124-0.082,0.237-0.177,0.354-0.265
		c0.137-0.102,0.276-0.198,0.405-0.307c0.164-0.135,0.316-0.281,0.47-0.427c0.076-0.071,0.156-0.139,0.229-0.214
		c0.153-0.153,0.294-0.315,0.437-0.479c0.067-0.078,0.141-0.153,0.204-0.233c0.124-0.151,0.239-0.313,0.353-0.471
		c0.074-0.103,0.153-0.203,0.225-0.309c0.089-0.137,0.169-0.278,0.253-0.419c0.082-0.138,0.168-0.274,0.243-0.417
		c0.061-0.115,0.113-0.233,0.17-0.351c0.084-0.174,0.168-0.347,0.242-0.525c0.039-0.101,0.071-0.2,0.109-0.301
		c0.075-0.199,0.148-0.398,0.21-0.603c0.031-0.105,0.054-0.212,0.082-0.317c0.054-0.2,0.108-0.399,0.148-0.604
		c0.034-0.172,0.055-0.347,0.078-0.521c0.022-0.14,0.048-0.276,0.063-0.417c0.067-0.657,0.067-1.322-0.002-1.986
		c-0.002-0.032-0.009-0.063-0.013-0.095c-0.033-0.288-0.075-0.575-0.132-0.86c-0.031-0.154-0.076-0.304-0.114-0.454
		c-0.041-0.159-0.073-0.319-0.123-0.477c-0.082-0.271-0.181-0.536-0.286-0.797c-0.015-0.037-0.025-0.075-0.04-0.113
		c-0.136-0.319-0.285-0.632-0.451-0.935l-62.051-114.398c-0.288-0.723-0.657-1.402-1.099-2.027l-4.942-9.112
		c-5.486-10.38-1.391-23.464,9.129-29.17c10.461-5.674,23.217-1.917,29.052,8.553l71.202,131.19v0.001
		c8.188,15.096,7.806,32.961-1.022,47.79c-8.82,14.819-24.881,24.027-41.911,24.027h-40.67c-10.852,0-19.682,8.83-19.682,19.682
		v60.303c0,5.447,4.418,9.864,9.866,9.864s9.864-4.417,9.864-9.864v-60.224c0.01-0.01,0.021-0.021,0.031-0.03h40.59
		c23.949,0,46.505-12.899,58.866-33.665C458.268,339.765,458.795,314.61,447.261,293.34z M256.138,156.172
		c16.94-0.001,32.915,8.501,42.434,22.383c-0.716,7.673,0.688,15.6,4.521,22.849c0.011,0.021,0.023,0.038,0.032,0.058
		c0.008,0.012,0.012,0.022,0.019,0.034l4.369,8.059c-0.671,17.504-10.282,33.616-25.515,42.479c-15.951,9.28-35.766,9.28-51.715,0
		c-15.374-8.945-25.023-25.273-25.535-42.966l4.109-7.568c0.006-0.012,0.011-0.025,0.02-0.038c0.01-0.02,0.021-0.037,0.031-0.057
		c3.733-7.06,5.309-14.873,4.672-22.651C223.077,164.756,239.118,156.173,256.138,156.172z M321.569,235.468l41.826,77.11H148.548
		l42.032-77.417c5.903,14.016,16.233,26.044,29.778,33.926c11.037,6.42,23.409,9.631,35.781,9.631s24.744-3.211,35.78-9.631
		C305.367,261.263,315.643,249.353,321.569,235.468z"/>
	<path d="M252.904,115.725c4.486,0,8.124-3.637,8.124-8.124V89.553l1.792,0.56c0.05,0.016,0.099,0.025,0.148,0.04
		c0.032,0.01,0.062,0.022,0.095,0.032c0.065,0.019,0.133,0.03,0.2,0.048c0.086,0.022,0.174,0.045,0.262,0.063
		c1.036,0.249,2.099,0.379,3.168,0.379c3.195,0,6.438-1.094,9.14-3.158c3.482-2.662,5.394-6.672,5.388-11.296
		c0-0.011,0.002-0.021,0.002-0.033V55.713c0-4.487-3.638-8.125-8.125-8.125c-4.486,0-8.123,3.638-8.123,8.125v18.049l-1.795-0.561
		c-0.038-0.013-0.08-0.02-0.12-0.031c-0.04-0.013-0.078-0.028-0.12-0.04c-4.36-1.217-8.914-0.347-12.489,2.387
		c-3.555,2.717-5.667,7.035-5.669,11.566c0,0.015-0.001,0.028-0.001,0.043v20.475C244.78,112.088,248.416,115.725,252.904,115.725z"
		/>
	<path d="M187.942,91.856l-2.272,0.909c-0.016,0.006-0.031,0.015-0.049,0.021c-4.217,1.625-7.354,4.895-8.627,9.023
		c-1.35,4.389-0.594,9.171,2.023,12.793c0.004,0.004,0.006,0.007,0.01,0.011c0.003,0.006,0.006,0.011,0.01,0.016l12.061,16.548
		c1.59,2.182,4.063,3.34,6.57,3.34c1.662,0,3.336-0.507,4.779-1.56c3.626-2.643,4.424-7.725,1.781-11.351l-10.59-14.529l2.273-0.909
		c0.02-0.008,0.037-0.019,0.057-0.026c4.234-1.641,7.629-5.174,8.898-9.297c1.299-4.219,0.481-8.663-2.303-12.516
		c-0.004-0.004-0.006-0.008-0.01-0.013c-0.003-0.004-0.006-0.009-0.008-0.013l-12.063-16.549c-2.643-3.626-7.724-4.424-11.351-1.78
		c-3.626,2.643-4.423,7.725-1.78,11.351L187.942,91.856z"/>
	<path d="M309.553,132.958c1.443,1.053,3.119,1.56,4.779,1.56c2.508,0,4.981-1.158,6.572-3.34l12.061-16.548
		c0.003-0.005,0.005-0.01,0.009-0.016c0.004-0.004,0.006-0.007,0.009-0.011c2.743-3.794,3.604-8.576,2.304-12.794
		c-1.267-4.111-4.57-7.414-9.07-9.088c-0.017-0.006-0.033-0.015-0.05-0.021l-2.139-0.803l10.62-14.572
		c2.643-3.626,1.845-8.708-1.781-11.351c-3.629-2.644-8.708-1.846-11.351,1.78l-12.06,16.549c-0.004,0.004-0.008,0.009-0.01,0.013
		c-0.003,0.005-0.007,0.009-0.011,0.015c-2.619,3.623-3.356,8.185-2.022,12.512c1.367,4.44,4.457,7.84,8.489,9.358
		c0.023,0.01,0.045,0.021,0.07,0.03l2.36,0.886l-10.56,14.489C305.13,125.233,305.928,130.315,309.553,132.958z"/>
</g>
<g>
	<path fill="#4D4D4D" d="M1909.71-278.13c33.036,0,59.912-26.877,59.912-59.913c0-33.036-26.876-59.913-59.912-59.913
		s-59.913,26.876-59.913,59.913C1849.797-305.007,1876.674-278.13,1909.71-278.13z M1909.71-379.225
		c22.708,0,41.183,18.475,41.183,41.183s-18.475,41.182-41.183,41.182s-41.183-18.474-41.183-41.182
		S1887.002-379.225,1909.71-379.225z"/>
	<path fill="#4D4D4D" d="M2145.804-157.011c0-0.001,0.001-0.002,0.002-0.004c12.69-17.603,15.123-40.554,6.349-59.899
		c-8.837-19.482-27.646-32.846-49.085-34.875c-0.002,0-0.004,0-0.005,0l-131.646-12.419c-0.062-0.005-0.121-0.003-0.183-0.007
		c-0.063-0.005-0.123-0.016-0.188-0.02c-60.313-3.293-113.854,33.166-130.204,88.653c-0.001,0.003-0.003,0.005-0.003,0.008
		l-37.507,126.68c-0.024,0.083-0.038,0.167-0.062,0.251c-0.021,0.086-0.053,0.168-0.073,0.255c-0.03,0.13-0.053,0.259-0.081,0.389
		c-0.004,0.018-0.009,0.035-0.012,0.054c-4.088,18.336,6.834,36.792,25.044,42.155c3.37,0.993,6.775,1.467,10.129,1.467
		c14.704-0.001,28.394-9.121,33.667-23.574c0.012-0.033,0.023-0.065,0.036-0.098c0.024-0.069,0.053-0.137,0.077-0.205
		c0.021-0.06,0.034-0.12,0.054-0.181c0.034-0.102,0.073-0.199,0.103-0.302l38.637-131.039l34.166,148.131
		c1,4.332,4.854,7.263,9.117,7.263c0.697,0,1.406-0.078,2.113-0.241c5.04-1.163,8.184-6.19,7.021-11.23l-36.265-157.229
		l-0.001-0.001v-0.001v-0.001c0-0.002-0.001-0.004-0.001-0.006c-1.679-7.267-7.936-12.494-15.222-12.712
		c-7.332-0.238-14.175,4.779-16.287,11.892c-0.004,0.011-0.008,0.022-0.012,0.033l-41.139,139.528
		c-3.102,8.463-12.244,13.092-20.902,10.539c-8.756-2.579-14.018-11.403-12.052-20.146l37.409-126.353
		c0.001-0.002,0.001-0.004,0.002-0.005c0-0.003,0.002-0.006,0.002-0.009c13.864-47.082,59.529-78.013,111.076-75.269l131.419,12.398
		c0.001,0,0.003,0,0.004,0c14.773,1.397,27.722,10.58,33.793,23.964c6.01,13.25,4.29,29.043-4.488,41.216
		c-0.001,0.001-0.002,0.002-0.003,0.003c0,0.001-0.001,0.002-0.002,0.003l-49.089,68.179c-5.604,7.387-15.907,8.899-23.479,3.439
		c-7.609-5.489-9.493-15.711-4.298-23.289l47.098-65.192c0.04-0.056,0.072-0.114,0.11-0.171c0.116-0.168,0.229-0.338,0.334-0.515
		c0.058-0.096,0.111-0.191,0.164-0.288c0.09-0.164,0.176-0.329,0.256-0.498c0.054-0.114,0.106-0.228,0.155-0.344
		c0.064-0.151,0.124-0.305,0.181-0.461c0.05-0.135,0.098-0.271,0.141-0.407c0.043-0.138,0.08-0.276,0.117-0.416
		c0.041-0.157,0.08-0.315,0.114-0.474c0.025-0.125,0.046-0.251,0.067-0.379c0.028-0.173,0.055-0.346,0.073-0.52
		c0.005-0.046,0.016-0.09,0.02-0.136c0.007-0.077,0.005-0.153,0.01-0.231c0.013-0.184,0.022-0.367,0.024-0.551
		c0.002-0.145-0.002-0.287-0.007-0.43c-0.006-0.153-0.014-0.306-0.026-0.458c-0.014-0.166-0.033-0.33-0.056-0.493
		c-0.019-0.13-0.039-0.26-0.062-0.389c-0.032-0.174-0.068-0.345-0.109-0.516c-0.029-0.123-0.062-0.244-0.096-0.366
		c-0.048-0.166-0.098-0.329-0.154-0.491c-0.044-0.13-0.092-0.258-0.143-0.386c-0.058-0.146-0.117-0.289-0.182-0.432
		c-0.064-0.142-0.133-0.28-0.204-0.419c-0.063-0.123-0.128-0.244-0.196-0.363c-0.085-0.148-0.175-0.294-0.269-0.438
		c-0.068-0.106-0.139-0.211-0.212-0.314c-0.102-0.143-0.207-0.283-0.316-0.422c-0.081-0.102-0.165-0.202-0.251-0.301
		c-0.108-0.125-0.22-0.249-0.336-0.369c-0.105-0.109-0.214-0.215-0.324-0.319c-0.104-0.099-0.211-0.197-0.322-0.292
		c-0.138-0.118-0.28-0.23-0.425-0.341c-0.063-0.048-0.119-0.101-0.184-0.148c-0.037-0.026-0.076-0.047-0.112-0.073
		c-0.158-0.111-0.321-0.214-0.487-0.315c-0.103-0.063-0.204-0.128-0.31-0.187c-0.154-0.086-0.313-0.165-0.474-0.243
		c-0.124-0.061-0.246-0.123-0.372-0.178c-0.14-0.06-0.282-0.113-0.425-0.167c-0.153-0.058-0.306-0.116-0.46-0.166
		c-0.121-0.038-0.244-0.069-0.367-0.103c-0.182-0.05-0.363-0.099-0.548-0.137c-0.107-0.022-0.218-0.04-0.328-0.059
		c-0.2-0.035-0.4-0.066-0.602-0.087c-0.041-0.004-0.081-0.014-0.123-0.018l-63.34-5.961c-5.143-0.494-9.717,3.297-10.201,8.446
		s3.297,9.717,8.446,10.201l47.037,4.427l-37.605,52.054c-0.02,0.027-0.035,0.057-0.055,0.084c-0.021,0.029-0.045,0.056-0.065,0.086
		c-11.059,16.047-7.22,37.633,8.741,49.145c0.098,0.07,0.198,0.136,0.297,0.206l15.93,69.34c0.995,4.335,4.852,7.271,9.118,7.271
		c0.695,0,1.4-0.078,2.106-0.24c5.04-1.157,8.188-6.183,7.03-11.224l-13.45-58.549c1.72-0.005,3.451-0.133,5.179-0.389
		c9.153-1.356,17.283-6.142,22.95-13.479c0.033-0.041,0.065-0.083,0.099-0.124c0.052-0.068,0.108-0.133,0.16-0.201
		c0.014-0.019,0.024-0.038,0.038-0.058c0.027-0.037,0.058-0.072,0.085-0.11L2145.804-157.011z"/>
	<path fill="#4D4D4D" d="M2199.487-99.095c-1.619-3.939-6.126-5.82-10.065-4.2l-21.768,8.948l-0.694-5.094
		c-0.003-0.022-0.01-0.046-0.013-0.068c-0.618-4.788-3.249-8.975-7.082-11.231c-3.943-2.32-9.187-2.604-13.681-0.746
		c-0.001,0.001-0.002,0.002-0.003,0.002c-0.003,0.002-0.006,0.002-0.009,0.003l-22.106,9.191c-3.933,1.635-5.796,6.149-4.161,10.082
		c1.233,2.966,4.103,4.754,7.125,4.754c0.986,0,1.99-0.19,2.957-0.593l21.727-9.032l0.707,5.188
		c0.004,0.029,0.012,0.057,0.016,0.085c0.599,4.521,3.319,8.607,7.325,10.965c2.377,1.4,4.995,2.108,7.613,2.108
		c1.877,0,3.753-0.364,5.541-1.101c0.004-0.002,0.01-0.003,0.015-0.005l22.355-9.19
		C2199.226-90.648,2201.107-95.155,2199.487-99.095z"/>
	<path fill="#4D4D4D" d="M2185.424-29.998l-23.097-3.85l2.091-4.879c0.006-0.011,0.009-0.022,0.013-0.033
		c1.982-4.383,1.954-9.124-0.098-13.061c-2.094-4.019-6.274-6.908-11.185-7.733c-0.001,0-0.002,0-0.003,0l-0.002-0.001
		c-0.002,0-0.005,0-0.006-0.001c-0.001,0-0.003-0.001-0.004-0.001l-23.585-3.972c-4.2-0.71-8.179,2.124-8.886,6.324
		c-0.708,4.2,2.124,8.179,6.324,8.887l23.093,3.89l-2.075,4.841c-0.006,0.013-0.009,0.026-0.015,0.039
		c-1.89,4.202-1.772,8.737,0.349,12.808c2.248,4.313,6.147,7.222,10.7,7.982c0.001,0,0.002,0.001,0.003,0.001c0,0,0,0,0.001,0
		l23.845,3.975c0.43,0.071,0.855,0.105,1.277,0.105c3.701,0,6.969-2.673,7.599-6.445
		C2192.464-25.323,2189.626-29.297,2185.424-29.998z"/>
</g>
</svg>
